<?xml version="1.0" encoding="UTF-8" standalone="no"?>
<!-- Created with Inkscape (http://www.inkscape.org/) -->

<svg
   xmlns:dc="http://purl.org/dc/elements/1.1/"
   xmlns:cc="http://creativecommons.org/ns#"
   xmlns:rdf="http://www.w3.org/1999/02/22-rdf-syntax-ns#"
   xmlns:svg="http://www.w3.org/2000/svg"
   xmlns="http://www.w3.org/2000/svg"
   xmlns:sodipodi="http://sodipodi.sourceforge.net/DTD/sodipodi-0.dtd"
   xmlns:inkscape="http://www.inkscape.org/namespaces/inkscape"
   width="44.264786mm"
   height="44.162251mm"
   viewBox="0 0 156.84373 156.48041"
   id="svg2"
   version="1.1"
   inkscape:version="0.91 r13725"
   sodipodi:docname="loading.svg">
  <defs
     id="defs4">
    <filter
       id="filter5695"
       inkscape:label="Colorize"
       style="color-interpolation-filters:sRGB">
      <feComposite
         id="feComposite5697"
         result="composite1"
         k2="0.5"
         k1="0"
         operator="arithmetic"
         in2="SourceGraphic"
         k3="0"
         k4="0" />
      <feColorMatrix
         id="feColorMatrix5699"
         result="colormatrix1"
         type="saturate"
         values="0"
         in="composite1" />
      <feFlood
         id="feFlood5701"
         result="flood1"
         flood-color="rgb(144,24,38)"
         flood-opacity="1" />
      <feBlend
         id="feBlend5703"
         result="blend1"
         mode="multiply"
         in2="colormatrix1"
         in="flood1" />
      <feBlend
         id="feBlend5705"
         result="blend2"
         mode="screen"
         in2="blend1" />
      <feColorMatrix
         id="feColorMatrix5707"
         result="colormatrix2"
         type="saturate"
         values="1"
         in="blend2" />
      <feComposite
         id="feComposite5709"
         result="composite2"
         operator="in"
         in2="SourceGraphic"
         in="colormatrix2" />
    </filter>
  </defs>
  <sodipodi:namedview
     id="base"
     pagecolor="#ffffff"
     bordercolor="#666666"
     borderopacity="1.0"
     inkscape:pageopacity="0.0"
     inkscape:pageshadow="2"
     inkscape:zoom="2"
     inkscape:cx="46.040052"
     inkscape:cy="35.037593"
     inkscape:document-units="px"
     inkscape:current-layer="layer1"
     showgrid="false"
     inkscape:window-width="1855"
     inkscape:window-height="1056"
     inkscape:window-x="65"
     inkscape:window-y="24"
     inkscape:window-maximized="1"
     fit-margin-top="0"
     fit-margin-left="0"
     fit-margin-right="0"
     fit-margin-bottom="0" />
  <metadata
     id="metadata7">
    <rdf:RDF>
      <cc:Work
         rdf:about="">
        <dc:format>image/svg+xml</dc:format>
        <dc:type
           rdf:resource="http://purl.org/dc/dcmitype/StillImage" />
        <dc:title></dc:title>
      </cc:Work>
    </rdf:RDF>
  </metadata>
  <g
     inkscape:label="Calque 1"
     inkscape:groupmode="layer"
     id="layer1"
     transform="translate(-24.857089,-205.42157)">
    <path
       style="opacity:1;fill:#901826;fill-opacity:1;fill-rule:nonzero;stroke:none;stroke-width:3;stroke-linecap:round;stroke-miterlimit:4;stroke-dasharray:none;stroke-dashoffset:10;stroke-opacity:1"
       d="m 101.83789,228.41016 0,25.31836 -10.707031,-0.14258 -17.710937,17.24218 -0.332031,24.71485 17.242187,17.71094 11.507812,0.15429 0,25.33594 2.5,0 0,-25.30273 10.70899,0.14453 17.71093,-17.24219 0.33008,-24.7168 -17.24219,-17.71093 -11.50781,-0.1543 0,-25.35156 z m -19.201171,3.85156 -30.267578,29.4668 -0.242188,13.45117 1.28125,0.0332 -0.0039,0.22852 0.980469,0.0254 -0.002,0.082 2.4375,0.0644 0.216797,-11.8789 27.480469,-26.75391 10.744141,0.14258 -0.111328,-4.55665 z m 28.626451,0.38476 -0.0799,4.68936 11.68394,0.1582 26.7539,27.48047 -0.14257,10.68164 4.63686,-0.006 0.22657,-12.55664 -29.4668,-30.26563 z m -24.118639,10.93946 -23.615234,22.99023 -0.177735,13.25977 2.486329,0 0.164062,-12.19727 22.138672,-21.55273 11.228516,0.15039 0,-2.48633 z m 19.671879,0.26367 0,2.48633 12.21875,0.16406 21.55273,22.13867 -0.15039,11.22266 2.48633,0 0.16406,-12.21875 -22.99023,-23.61524 z m -17.679691,4.73633 -20.66211,20.11718 -0.183593,13.63282 -20.259766,-0.004 -0.0332,2.50195 20.259765,0.002 -0.169921,12.70117 20.117187,20.66211 11.138672,0.15039 0,-2.48828 -10.076172,-0.13477 -18.679687,-19.18554 0.359375,-26.7754 19.1875,-18.67968 9.199218,0.12304 0,-2.48632 z m 17.697261,0.23633 0,2.48828 10.07618,0.13476 18.67773,19.18555 -0.35742,26.77539 -19.1875,18.67969 -9.20703,-0.12305 0,2.48633 10.20312,0.13672 20.66211,-20.11524 0.1836,-13.63476 20.3164,0 0,-2.5 -20.2832,0 0.16992,-12.70117 -20.11523,-20.66211 z m -14.707027,7.26367 22.656247,0.30273 15.80469,16.23438 -0.12891,9.71289 -7.46093,0 0.0898,-6.72071 -11.49609,-11.80859 -4.75391,-0.0645 0,2.48633 3.69141,0.0508 10.05859,10.33203 -0.19336,14.41797 -10.33203,10.05664 -3.22852,-0.043 0,2.48633 4.22461,0.0566 11.8086,-11.49414 0.0977,-7.25586 7.45899,0 -0.13867,10.44336 -16.23438,15.80664 -22.656249,-0.30469 -15.80664,-16.23437 0.130859,-9.71094 7.458984,0 -0.08984,6.72265 11.49414,11.80664 4.751953,0.0645 0,-2.48633 -3.689453,-0.0508 -10.05664,-10.33008 0.193359,-14.41797 10.330078,-10.05859 3.214844,0.043 0,-2.48633 -4.210938,-0.0566 -11.80664,11.49609 -0.09766,7.25391 -7.458985,0 0.140625,-10.44532 z m 0.996094,2.5 -14.757813,14.36718 -0.09375,6.88086 2.486328,0 0.07813,-5.8164 13.283203,-12.9336 7.718745,0.10352 0,7.46289 -4.730464,-0.0645 -8.855469,8.62109 -0.164062,12.35742 8.621093,8.85547 5.128902,0.0684 0,7.45899 -8.318355,-0.11133 -12.93164,-13.28321 0.07031,-5.23046 -2.486328,0 -0.08398,6.22851 14.36914,14.75781 20.595703,0.27539 14.75977,-14.36718 0.0918,-6.88868 -2.48633,0 -0.0781,5.82422 -13.2832,12.9336 -7.71875,-0.10352 0,-7.46094 4.72852,0.0645 8.85547,-8.6211 0.16601,-12.35742 -8.62109,-8.85547 -5.12891,-0.0684 0,-7.46093 8.31836,0.11132 12.93164,13.28321 -0.0703,5.22265 2.48633,0 0.084,-6.2207 -14.36914,-14.75781 z m 4.982422,12.5 10.296871,0.13672 7.18555,7.38086 -0.13867,10.29687 -7.37891,7.18555 -10.298826,-0.13867 -7.183593,-7.37891 0.136718,-10.29883 z m -34.853516,16.24023 -0.164062,12.20313 22.990234,23.61523 13.277344,0.17774 0,-2.48633 -12.214844,-0.16406 -21.552734,-22.13868 0.15039,-11.20703 z m 77.085937,0 -0.16406,12.20703 -22.13867,21.55274 -11.23243,-0.15039 0,2.48633 12.23047,0.16406 23.61328,-22.99024 0.17774,-13.26953 z m 8.92969,4.31446 -0.1582,11.68749 -27.48243,26.75196 -10.61523,-0.14063 0.12412,4.71946 12.37197,0.14001 30.26758,-29.46485 0.18164,-13.65624 z m -94.982424,-0.15625 -0.0039,0.21874 -0.976562,0 -0.002,0.1504 -1.277343,0 -0.222657,12.11328 29.46875,30.26758 13.830079,0.16602 0.128906,-4.67174 -11.953125,-0.16211 -26.75586,-27.48047 0.201172,-10.60156 z"
       id="path4305"
       inkscape:connector-curvature="0"
       sodipodi:nodetypes="cccccccccccccccccccccccccccccccccccccccccccccccccccccccccccccccccccccccccccccccccccccccccccccccccccccccccccccccccccccccccccccccccccccccccccccccccccccccccccccccccccccccccccccccccccccccccccccccccccccccccccccccccccccccccccccc" />
    <path
       style="opacity:1;fill:#7d9ea5;fill-opacity:0.53333336;fill-rule:nonzero;stroke:none;stroke-width:3;stroke-linecap:round;stroke-miterlimit:4;stroke-dasharray:none;stroke-dashoffset:10;stroke-opacity:1"
       d="m 24.857089,277.20865 0.177705,13.17968 9.445342,9.19532 13.181628,-0.17581 5.253907,-5.39842 2.474626,-0.0879 0.287077,-2.27736 -5.259741,0.0566 -4.472677,4.39064 -10.298822,0.13671 -7.378895,-7.1836 -0.138686,-10.29882 7.185545,-7.37891 10.296917,-0.13867 4.660117,4.40428 5.218765,-0.004 -1.73e-4,-0.006 0.0029,2e-5 -0.0052,-10e-4 -0.07619,-2.13084 -2.111307,0.002 -6.064463,-5.90624 -13.185527,0.17771 z m 5.771468,2.53319 0.109361,8.23828 5.904316,5.74802 8.238297,-0.10934 4.089833,-4.09767 14.835951,0.006 -0.339787,-2.04687 -15.525377,-0.043 -4.123046,3.70896 -6.179689,0.082 -4.427739,-4.31056 -0.08199,-6.17967 4.310543,-4.42579 6.177736,-0.084 3.990226,3.7168 17.125499,0.0827 0.01121,-1.99087 -15.742218,-0.0918 -4.386737,-4.2168 -8.238253,0.11136 z m 56.296884,59.77929 0.17772,13.18555 9.447274,9.1953 13.179705,-0.17772 9.19529,-9.4453 -0.17576,-13.18165 -5.36134,-5.21874 0.002,-2.56641 -2.14065,-0.0762 6e-5,0.56055 -0.28712,-0.27929 2e-5,3.70121 0.28326,0.27725 -3e-5,0.95899 4.40435,4.66016 -0.1387,10.29686 -7.37889,7.18556 -10.298836,-0.13868 -7.183633,-7.3789 0.136732,-10.29883 4.328137,-4.47264 0.11916,-5.24417 -2.279317,0.27152 -0.07231,2.06835 z m 0.250014,-111.71875 5.654278,5.80666 -0.008,2.50976 2.374869,0.16308 0.0176,-4.91404 -4.427554,-4.64944 -0.136729,-10.29882 7.183598,-7.37891 10.298823,-0.13866 7.3789,7.18554 0.13868,10.29687 -4.40821,4.66541 0.004,5.21876 2.14451,-0.0814 -0.002,-2.5 5.61135,-5.46096 0.17577,-13.18161 -9.19533,-9.44533 -13.179671,-0.17772 -9.447268,9.19531 z m 5.974604,122.28125 5.748029,5.90428 8.238292,0.10939 5.90234,-5.74803 0.11134,-8.2383 -4.21681,-4.38671 -0.0918,-15.74022 -1.96876,0.0977 0.0606,17.0371 3.71679,3.99024 -0.084,6.17776 -4.42576,4.31053 -6.1797,-0.082 -4.310546,-4.42777 0.08199,-6.17969 3.70899,-4.12303 -0.043,-15.5254 -2.046862,-0.33991 0.006,14.83596 -4.097667,4.08985 z m -9e-6,-132.66796 0.109364,8.23825 4.097641,4.08988 -0.006,14.83596 2.057912,-0.6824 0.0319,-15.18285 -3.70897,-4.12304 -0.082,-6.17971 4.310545,-4.42772 6.179648,-0.082 4.4258,4.31056 0.084,6.17771 -3.71677,3.99026 -0.0606,17.03705 1.96874,0.0977 0.0918,-15.74023 4.21678,-4.38674 -0.11133,-8.23825 -5.90235,-5.74807 -8.238299,0.10939 z m 48.27929,60.6211 0.0977,1.96875 17.03711,-0.0606 3.99025,-3.71681 6.17773,0.084 4.31054,4.42576 -0.082,6.1797 -4.42774,4.31055 -6.17967,-0.082 -4.12306,-3.70896 -15.52539,0.043 -0.3398,2.04689 14.83592,-0.006 4.08986,4.09765 8.23826,0.10938 5.90431,-5.74807 0.10938,-8.23829 -5.74807,-5.90232 -8.23826,-0.11134 -4.38672,4.21682 z m 9.08011,13.60739 0.27145,2.27737 2.74024,0.0977 5.37502,5.52148 13.18164,0.17579 9.44528,-9.19531 0.17774,-13.17972 -9.19529,-9.44725 -13.18554,-0.17772 -5.92777,5.77344 -2.63476,-0.002 -1.18552,2.31249 6.26562,-0.0742 4.72263,-4.49802 10.2969,0.13865 7.18555,7.37892 -0.13868,10.29881 -7.37891,7.1836 -10.29882,-0.13671 -4.47267,-4.32812 z"
       id="path4305-4-2-4-0-6-9-0-2"
       inkscape:connector-curvature="0"
       sodipodi:nodetypes="ccccccccccccccccccccccccccccccccccccccccccccccccccccccccccccccccccccccccccccccccccccccccccccccccccccccccccccccccccccccccccccccccccccccccccccccccccccccccccccccccccccccccccccccc" />
    <rect
       style="opacity:0.43700005;fill:#916f6f;fill-opacity:1;fill-rule:nonzero;stroke:none;stroke-width:0;stroke-linecap:round;stroke-miterlimit:4;stroke-dasharray:none;stroke-dashoffset:10;stroke-opacity:1"
       id="rect4757"
       width="2.493814"
       height="4.1353121"
       x="244.3653"
       y="-2.067656"
       transform="matrix(0,1,-1,0,0,0)" />
    <path
       style="opacity:1;fill:#901826;fill-opacity:1;fill-rule:nonzero;stroke:none;stroke-width:3;stroke-linecap:round;stroke-miterlimit:4;stroke-dasharray:none;stroke-dashoffset:10;stroke-opacity:1"
       d="m 97.51712,269.57745 -8.26491,8.04624 -0.1526,11.53345 8.04624,8.26505 11.53345,0.1554 8.26491,-8.04624 0.1554,-11.53345 -8.04624,-8.26491 z m 0.93099,2.33335 9.61016,0.12599 6.70646,6.88874 -0.126,9.61016 -6.88692,6.70646 -9.61212,-0.126 -6.7045,-6.88692 0.126,-9.61212 z"
       id="path4305-0"
       inkscape:connector-curvature="0"
       sodipodi:nodetypes="cccccccccccccccccc" />
    <path
       style="opacity:1;fill:#901826;fill-opacity:1;fill-rule:nonzero;stroke:none;stroke-width:3;stroke-linecap:round;stroke-miterlimit:4;stroke-dasharray:none;stroke-dashoffset:10;stroke-opacity:1"
       d="m 97.91587,270.57745 -7.67456,7.47151 -0.1417,10.70963 7.47151,7.67469 10.70963,0.1443 7.67456,-7.47151 0.1443,-10.70963 -7.47151,-7.67456 z m 0.86449,2.16668 8.92372,0.11699 6.22743,6.39669 -0.117,8.92372 -6.395,6.22743 -8.92554,-0.117 -6.22561,-6.395 0.117,-8.92554 z"
       id="path4305-0-5"
       inkscape:connector-curvature="0"
       sodipodi:nodetypes="cccccccccccccccccc" />
  </g>
</svg>
